<mxfile host="app.diagrams.net" agent="Mozilla/5.0 (Windows NT 10.0; Win64; x64) AppleWebKit/537.36 (KHTML, like Gecko) Chrome/128.0.0.0 Safari/537.36" version="24.7.6">
  <diagram name="Page-1" id="mVyrJ4i0epx6fgpGqr63">
    <mxGraphModel dx="1103" dy="594" grid="1" gridSize="10" guides="1" tooltips="1" connect="1" arrows="1" fold="1" page="1" pageScale="1" pageWidth="850" pageHeight="1100" math="0" shadow="0">
      <root>
        <mxCell id="0" />
        <mxCell id="1" parent="0" />
        <mxCell id="xSS2ZSRiJZo6n-BO7K_l-1" value="Program Class" style="rounded=0;whiteSpace=wrap;html=1;" vertex="1" parent="1">
          <mxGeometry x="40" y="100" width="110" height="30" as="geometry" />
        </mxCell>
        <mxCell id="xSS2ZSRiJZo6n-BO7K_l-3" value="Display Class" style="rounded=0;whiteSpace=wrap;html=1;" vertex="1" parent="1">
          <mxGeometry x="40" y="150" width="110" height="30" as="geometry" />
        </mxCell>
        <mxCell id="xSS2ZSRiJZo6n-BO7K_l-4" value="MainMenu class" style="rounded=0;whiteSpace=wrap;html=1;align=center;" vertex="1" parent="1">
          <mxGeometry x="130" y="200" width="130" height="30" as="geometry" />
        </mxCell>
        <mxCell id="xSS2ZSRiJZo6n-BO7K_l-5" value="StudentMenu Class" style="rounded=0;whiteSpace=wrap;html=1;align=center;" vertex="1" parent="1">
          <mxGeometry x="130" y="240" width="130" height="30" as="geometry" />
        </mxCell>
        <mxCell id="xSS2ZSRiJZo6n-BO7K_l-6" value="CalculationMenu Class" style="rounded=0;whiteSpace=wrap;html=1;align=center;fontSize=11;" vertex="1" parent="1">
          <mxGeometry x="130" y="280" width="130" height="30" as="geometry" />
        </mxCell>
        <mxCell id="xSS2ZSRiJZo6n-BO7K_l-9" style="edgeStyle=orthogonalEdgeStyle;rounded=0;orthogonalLoop=1;jettySize=auto;html=1;exitX=0;exitY=0.5;exitDx=0;exitDy=0;entryX=0.5;entryY=1;entryDx=0;entryDy=0;" edge="1" parent="1" source="xSS2ZSRiJZo6n-BO7K_l-7" target="xSS2ZSRiJZo6n-BO7K_l-3">
          <mxGeometry relative="1" as="geometry" />
        </mxCell>
        <mxCell id="xSS2ZSRiJZo6n-BO7K_l-7" value="MenegmentMenu Class" style="rounded=0;whiteSpace=wrap;html=1;align=center;fontSize=11;" vertex="1" parent="1">
          <mxGeometry x="130" y="320" width="130" height="30" as="geometry" />
        </mxCell>
        <mxCell id="xSS2ZSRiJZo6n-BO7K_l-17" value="" style="endArrow=none;html=1;rounded=0;exitX=0;exitY=0.5;exitDx=0;exitDy=0;" edge="1" parent="1" source="xSS2ZSRiJZo6n-BO7K_l-4">
          <mxGeometry width="50" height="50" relative="1" as="geometry">
            <mxPoint x="180" y="290" as="sourcePoint" />
            <mxPoint x="95" y="215" as="targetPoint" />
          </mxGeometry>
        </mxCell>
        <mxCell id="xSS2ZSRiJZo6n-BO7K_l-18" value="" style="endArrow=none;html=1;rounded=0;exitX=0;exitY=0.5;exitDx=0;exitDy=0;" edge="1" parent="1">
          <mxGeometry width="50" height="50" relative="1" as="geometry">
            <mxPoint x="130" y="254.84" as="sourcePoint" />
            <mxPoint x="95" y="254.84" as="targetPoint" />
          </mxGeometry>
        </mxCell>
        <mxCell id="xSS2ZSRiJZo6n-BO7K_l-19" value="" style="endArrow=none;html=1;rounded=0;exitX=0;exitY=0.5;exitDx=0;exitDy=0;" edge="1" parent="1">
          <mxGeometry width="50" height="50" relative="1" as="geometry">
            <mxPoint x="130" y="294.84000000000003" as="sourcePoint" />
            <mxPoint x="95" y="294.84000000000003" as="targetPoint" />
          </mxGeometry>
        </mxCell>
        <mxCell id="xSS2ZSRiJZo6n-BO7K_l-20" value="GeneralMethod Class" style="rounded=0;whiteSpace=wrap;html=1;" vertex="1" parent="1">
          <mxGeometry x="300" y="100" width="140" height="30" as="geometry" />
        </mxCell>
        <mxCell id="xSS2ZSRiJZo6n-BO7K_l-21" value="Database Class" style="rounded=0;whiteSpace=wrap;html=1;" vertex="1" parent="1">
          <mxGeometry x="170" y="100" width="110" height="30" as="geometry" />
        </mxCell>
      </root>
    </mxGraphModel>
  </diagram>
</mxfile>
